<?xml version="1.0" encoding="UTF-8"?>
<svg width="6.82768mm" height="6.82768mm" version="1.1" viewBox="0 0 6.82768 6.82768" xmlns="http://www.w3.org/2000/svg">
 <g transform="translate(-156.633 -184.679)">
  <g transform="matrix(.86 0 0 .86 22.4066 26.333)" stroke-linecap="square">
   <circle cx="160.047" cy="188.093" r="3.41384" fill="#fff" stroke-width="5.81394"/>
   <path transform="matrix(.857812 0 0 .95 6.28707 39.9238)" d="m177.995 153.89c-0.3622-2e-3 -0.76439 0.0949-1.06557 0.32866-0.37069 0.28774-0.60016 0.80969-0.60668 1.27382-7e-3 0.46413 0.20356 0.91972 0.51418 1.32654 0.31062 0.40683 0.72202 0.76456 1.15445 1.06557 0.40579 0.28246 0.83026 0.51468 1.25574 0.74414v-4.11655c-0.0242-0.0439-0.0516-0.0865-0.0837-0.12764-0.18422-0.23604-0.5122-0.42275-0.92604-0.47801-0.0776-0.0104-0.15877-0.0161-0.24236-0.0165zm2.50424 0c0.3622-2e-3 0.76439 0.0949 1.06557 0.32866 0.37069 0.28774 0.60016 0.80969 0.60668 1.27382 7e-3 0.46413-0.20356 0.91972-0.51418 1.32654-0.31062 0.40683-0.72202 0.76456-1.15445 1.06557-0.40579 0.28246-0.83026 0.51468-1.25574 0.74414v-4.11655c0.0242-0.0439 0.0516-0.0865 0.0837-0.12764 0.18422-0.23604 0.5122-0.42275 0.92604-0.47801 0.0776-0.0104 0.15877-0.0161 0.24236-0.0165z" fill="#e21b33" stroke-width="6.44041"/>
  </g>
 </g>
</svg>
