<?xml version="1.0" encoding="UTF-8"?>
<svg width="25.0214mm" height="10.3074mm" version="1.1" viewBox="0 0 25.0214 10.3074" xml:space="preserve" xmlns="http://www.w3.org/2000/svg"><g transform="translate(-59.3902 -144.256)"><rect x="59.3902" y="144.256" width="25.0214" height="10.3074" rx="4.93606" ry="5" fill="#ececec" stroke-linecap="square" stroke-width="3.6925"/><text x="70.201271" y="150.50999" font-family="'Bitstream Vera Serif'" font-size="3.88056px" stroke-width=".264583" style="line-height:1.25" xml:space="preserve"><tspan x="70.201271" y="150.50999" font-family="sans-serif" font-size="3.88056px" stroke-width=".264583">Datek</tspan></text><g transform="matrix(1.075,0,0,1.075,-116.444,-56.2189)" stroke-linecap="square"><path d="m167.674 189.031c-0.3107-2e-3 -0.6557 0.0902-0.91406 0.31223-0.31798 0.27335-0.51482 0.76921-0.52041 1.21013-6e-3 0.44092 0.17461 0.87373 0.44107 1.26021 0.26645 0.38649 0.61935 0.72634 0.9903 1.0123 0.34809 0.26833 0.7122 0.48894 1.07719 0.70693v-3.91072c-0.0208-0.0417-0.0443-0.0822-0.0718-0.12126-0.15803-0.22424-0.43937-0.40161-0.79437-0.45411-0.0666-0.01-0.1362-0.0153-0.2079-0.0157zm2.14817 0c0.3107-2e-3 0.6557 0.0902 0.91406 0.31223 0.31798 0.27335 0.51482 0.76921 0.52042 1.21013 6e-3 0.44092-0.17462 0.87373-0.44107 1.26021-0.26646 0.38649-0.61936 0.72634-0.99031 1.0123-0.34809 0.26833-0.7122 0.48894-1.07718 0.70693v-3.91072c0.0207-0.0417 0.0443-0.0822 0.0718-0.12126 0.15803-0.22424 0.43938-0.40161 0.79437-0.45411 0.0666-0.01 0.1362-0.0153 0.2079-0.0157z" fill="#e21b33" stroke-width="5.81395"/></g></g></svg>
