<?xml version="1.0" encoding="UTF-8"?>
<svg version="1.1" viewBox="0 0 48 48" xmlns="http://www.w3.org/2000/svg">
 <path d="M0 0h48v48H0z" fill="none"/>
 <path d="m20.66 25.13 0.06-0.06c3.48-3.88 5.96-8.34 7.42-13.06h5.86v-4.01h-14v-4h-4v4h-14v3.98h22.34c-1.35 3.86-3.46 7.52-6.34 10.72-1.86-2.07-3.4-4.32-4.62-6.7h-4c1.46 3.26 3.46 6.34 5.96 9.12l-10.17 10.05 2.83 2.83 10-10z" fill="#fff"/>
 <path d="m19.3125 28.2718h6.65624q2.96874 0 4.55208 1.32292 1.59375 1.3125 1.59375 3.74999 0 2.44791-1.59375 3.77083-1.58333 1.3125-4.55208 1.3125h-2.64583v5.39582h-4.01041zm4.01041 2.90625v4.34374h2.21875q1.16666 0 1.80208-0.562499 0.635416-0.572916 0.635416-1.61458t-0.635416-1.60416q-0.635415-0.562499-1.80208-0.562499zm11.625-2.90625h4.01041v12.5208h7.04166v3.03124h-11.0521z" fill="#fff" aria-label="PL"/>
</svg>
